# xmcd
#
# Track frame offsets:
#	150
#	29621
#	47095
#	61602
#	87979
#	103281
#	126786
#	161853
#	188998
#	205730
#	219742
#	242676
#	269405
#	300987
#	338014
#
# Disc length: 4717 seconds
#
# Revision: 2
# Processed by: cddbd v1.5PL3 Copyright (c) Steve Scherf et al.
# Submitted via: EZCDDA 4.3.2
#
DISCID=d8126b0f
DTITLE=Peter Green - Legendary Masters
DYEAR=1900
DGENRE=
TTITLE0=You ll be sorry someday
TTITLE1=In the skies
TTITLE2=Apostle
TTITLE3=Got to see her tonight
TTITLE4=Bullet in the sky
TTITLE5=Slabo day
TTITLE6=A fool no more
TTITLE7=The clown
TTITLE8=Pround pinto
TTITLE9=Bandit
TTITLE10=Big change is gonna come
TTITLE11=Burghar
TTITLE12=I cant help myself
TTITLE13=Funky jam
TTITLE14=Milkcow s calf blues
EXTD=
EXTT0=
EXTT1=
EXTT2=
EXTT3=
EXTT4=
EXTT5=
EXTT6=
EXTT7=
EXTT8=
EXTT9=
EXTT10=
EXTT11=
EXTT12=
EXTT13=
EXTT14=
PLAYORDER=
